# xmcd
#
# Track frame offsets:
#	150
#	27504
#	47417
#	66568
#	116832
#	137883
#	152934
#	206922
#	236311
#	257147
#	279333
#
# Disc length: 4038
#
# Revision: 3
# Processed by: cddbd v1.5.1PL0 Copyright (c) Steve Scherf et al.
# Submitted via: CDex 1.50beta10
# Normalized: r2:TRMNUM
#
DISCID=a70fc40b
DTITLE=Stevie Ray Vaughan - Force Of Nature Disc One 10/14/81 Fitzgerald's Club, Houston
DYEAR=1900
DGENRE=Folk/Rock
TTITLE0=Boilermaker
TTITLE1=Close To You
TTITLE2=You'll Be Mine
TTITLE3=Done Lost Your Good Thing Now
TTITLE4=Empty Arms
TTITLE5=Slide Thing
TTITLE6=I'm Leaving You (Commit A Crime)
TTITLE7=Texas Flood
TTITLE8=Rude Mood
TTITLE9=Don't Lose Your Cool
TTITLE10=Thunderbird
EXTD=
EXTT0=
EXTT1=
EXTT2=
EXTT3=
EXTT4=
EXTT5=
EXTT6=
EXTT7=
EXTT8=
EXTT9=
EXTT10=
PLAYORDER=
